<svg width="303" height="152" viewBox="0 0 303 152" fill="none" xmlns="http://www.w3.org/2000/svg">
<path d="M21.096 44.744C23.688 41.096 27.24 38.072 31.752 35.672C36.36 33.176 41.592 31.928 47.448 31.928C54.264 31.928 60.408 33.608 65.88 36.968C71.448 40.328 75.816 45.128 78.984 51.368C82.248 57.512 83.88 64.664 83.88 72.824C83.88 80.984 82.248 88.232 78.984 94.568C75.816 100.808 71.448 105.656 65.88 109.112C60.408 112.568 54.264 114.296 47.448 114.296C41.592 114.296 36.408 113.096 31.896 110.696C27.48 108.296 23.88 105.272 21.096 101.624V151.016H0.936001V33.224H21.096V44.744ZM63.288 72.824C63.288 68.024 62.28 63.896 60.264 60.44C58.344 56.888 55.752 54.2 52.488 52.376C49.32 50.552 45.864 49.64 42.12 49.64C38.472 49.64 35.016 50.6 31.752 52.52C28.584 54.344 25.992 57.032 23.976 60.584C22.056 64.136 21.096 68.312 21.096 73.112C21.096 77.912 22.056 82.088 23.976 85.64C25.992 89.192 28.584 91.928 31.752 93.848C35.016 95.672 38.472 96.584 42.12 96.584C45.864 96.584 49.32 95.624 52.488 93.704C55.752 91.784 58.344 89.048 60.264 85.496C62.28 81.944 63.288 77.72 63.288 72.824Z" fill="#86C232"/>
<path d="M135.106 49.784H121.138V113H100.69V49.784H91.6178V33.224H100.69V29.192C100.69 19.4 103.474 12.2 109.042 7.59199C114.61 2.98399 123.01 0.823997 134.242 1.112V18.104C129.346 18.008 125.938 18.824 124.018 20.552C122.098 22.28 121.138 25.4 121.138 29.912V33.224H135.106V49.784ZM158.394 23.72C154.842 23.72 151.866 22.616 149.466 20.408C147.162 18.104 146.01 15.272 146.01 11.912C146.01 8.55199 147.162 5.76799 149.466 3.55999C151.866 1.25599 154.842 0.103994 158.394 0.103994C161.946 0.103994 164.874 1.25599 167.178 3.55999C169.578 5.76799 170.778 8.55199 170.778 11.912C170.778 15.272 169.578 18.104 167.178 20.408C164.874 22.616 161.946 23.72 158.394 23.72ZM168.33 33.224V113H148.17V33.224H168.33ZM208.409 6.44V113H188.249V6.44H208.409ZM302.487 71.384C302.487 74.264 302.295 76.856 301.911 79.16H243.591C244.071 84.92 246.087 89.432 249.639 92.696C253.191 95.96 257.559 97.592 262.743 97.592C270.231 97.592 275.559 94.376 278.727 87.944H300.471C298.167 95.624 293.751 101.96 287.223 106.952C280.695 111.848 272.679 114.296 263.175 114.296C255.495 114.296 248.583 112.616 242.439 109.256C236.391 105.8 231.639 100.952 228.183 94.712C224.823 88.472 223.143 81.272 223.143 73.112C223.143 64.856 224.823 57.608 228.183 51.368C231.543 45.128 236.247 40.328 242.295 36.968C248.343 33.608 255.303 31.928 263.175 31.928C270.759 31.928 277.527 33.56 283.479 36.824C289.527 40.088 294.183 44.744 297.447 50.792C300.807 56.744 302.487 63.608 302.487 71.384ZM281.607 65.624C281.511 60.44 279.639 56.312 275.991 53.24C272.343 50.072 267.879 48.488 262.599 48.488C257.607 48.488 253.383 50.024 249.927 53.096C246.567 56.072 244.503 60.248 243.735 65.624H281.607Z" fill="white"/>
</svg>
