<svg width="380" height="118" viewBox="0 0 380 118" fill="none" xmlns="http://www.w3.org/2000/svg">
<path d="M25.552 9.44V116H0.928V9.44H25.552ZM177.294 34.784C186.702 34.784 194.19 37.856 199.758 44C205.422 50.048 208.254 58.4 208.254 69.056V116H183.774V72.368C183.774 66.992 182.382 62.816 179.598 59.84C176.814 56.864 173.07 55.376 168.366 55.376C163.662 55.376 159.918 56.864 157.134 59.84C154.35 62.816 152.958 66.992 152.958 72.368V116H128.334V35.648H152.958V46.304C155.454 42.752 158.814 39.968 163.038 37.952C167.262 35.84 172.014 34.784 177.294 34.784ZM274.47 116L249.99 82.304V116H225.366V9.44H249.99V68.336L274.326 35.648H304.71L271.302 75.968L304.998 116H274.47ZM347.069 117.152C340.061 117.152 333.821 115.952 328.349 113.552C322.877 111.152 318.557 107.888 315.389 103.76C312.221 99.536 310.445 94.832 310.061 89.648H334.397C334.685 92.432 335.981 94.688 338.285 96.416C340.589 98.144 343.421 99.008 346.781 99.008C349.853 99.008 352.205 98.432 353.837 97.28C355.565 96.032 356.429 94.448 356.429 92.528C356.429 90.224 355.229 88.544 352.829 87.488C350.429 86.336 346.541 85.088 341.165 83.744C335.405 82.4 330.605 81.008 326.765 79.568C322.925 78.032 319.613 75.68 316.829 72.512C314.045 69.248 312.653 64.88 312.653 59.408C312.653 54.8 313.901 50.624 316.397 46.88C318.989 43.04 322.733 40.016 327.629 37.808C332.621 35.6 338.525 34.496 345.341 34.496C355.421 34.496 363.341 36.992 369.101 41.984C374.957 46.976 378.317 53.6 379.181 61.856H356.429C356.045 59.072 354.797 56.864 352.685 55.232C350.669 53.6 347.981 52.784 344.621 52.784C341.741 52.784 339.533 53.36 337.997 54.512C336.461 55.568 335.693 57.056 335.693 58.976C335.693 61.28 336.893 63.008 339.293 64.16C341.789 65.312 345.629 66.464 350.813 67.616C356.765 69.152 361.613 70.688 365.357 72.224C369.101 73.664 372.365 76.064 375.149 79.424C378.029 82.688 379.517 87.104 379.613 92.672C379.613 97.376 378.269 101.6 375.581 105.344C372.989 108.992 369.197 111.872 364.205 113.984C359.309 116.096 353.597 117.152 347.069 117.152Z" fill="#222629"/>
<path d="M55.7808 27.296C51.4608 27.296 47.9088 26.048 45.1248 23.552C42.4368 20.96 41.0928 17.792 41.0928 14.048C41.0928 10.208 42.4368 7.04 45.1248 4.54399C47.9088 1.95199 51.4608 0.655992 55.7808 0.655992C60.0048 0.655992 63.4608 1.95199 66.1488 4.54399C68.9328 7.04 70.3248 10.208 70.3248 14.048C70.3248 17.792 68.9328 20.96 66.1488 23.552C63.4608 26.048 60.0048 27.296 55.7808 27.296ZM68.0208 35.648V116H43.3968V35.648H68.0208ZM98.2495 27.296C93.9295 27.296 90.3775 26.048 87.5935 23.552C84.9055 20.96 83.5615 17.792 83.5615 14.048C83.5615 10.208 84.9055 7.04 87.5935 4.54399C90.3775 1.95199 93.9295 0.655992 98.2495 0.655992C102.474 0.655992 105.93 1.95199 108.618 4.54399C111.402 7.04 112.794 10.208 112.794 14.048C112.794 17.792 111.402 20.96 108.618 23.552C105.93 26.048 102.474 27.296 98.2495 27.296ZM110.49 35.648V116H85.8655V35.648H110.49Z" fill="#16A085"/>
</svg>
